<?xml version="1.0" standalone="no"?>
<!DOCTYPE svg PUBLIC "-//W3C//DTD SVG 20010904//EN"
 "http://www.w3.org/TR/2001/REC-SVG-20010904/DTD/svg10.dtd">
<svg version="1.0" xmlns="http://www.w3.org/2000/svg"
 width="96.000000pt" height="96.000000pt" viewBox="0 0 96.000000 96.000000"
 preserveAspectRatio="xMidYMid meet">
<metadata>
Created by potrace 1.11, written by Peter Selinger 2001-2013
</metadata>
<g transform="translate(0.000000,96.000000) scale(0.100000,-0.100000)"
fill="#000000" stroke="none">
<path d="M0 530 l0 -431 25 -24 c24 -25 26 -25 205 -25 180 0 181 0 206 -25
14 -14 33 -25 44 -25 11 0 30 11 44 25 25 25 26 25 206 25 179 0 181 0 205 25
l25 24 0 431 0 430 -480 0 -480 0 0 -430z m480 305 c0 -78 -2 -85 -20 -85 -13
0 -20 7 -20 20 0 17 -7 20 -40 20 -33 0 -40 3 -40 20 0 15 -9 22 -30 27 -16 3
-30 9 -30 14 0 5 -18 9 -40 9 -22 0 -40 -4 -40 -9 0 -5 -13 -11 -30 -14 -21
-5 -30 -12 -30 -27 0 -17 -7 -20 -40 -20 -33 0 -40 -3 -40 -20 0 -13 -7 -20
-20 -20 -18 0 -20 7 -20 85 l0 85 220 0 220 0 0 -85z m260 35 c0 -5 18 -10 40
-10 22 0 40 -4 40 -10 0 -5 -9 -10 -20 -10 -11 0 -20 -7 -20 -15 0 -8 5 -15
10 -15 6 0 10 -9 10 -20 0 -13 7 -20 20 -20 13 0 20 -7 20 -19 0 -11 6 -22 13
-24 6 -3 2 -6 -10 -6 -14 -1 -23 5 -23 14 0 8 -3 15 -6 15 -10 0 -34 -28 -34
-39 0 -6 -4 -11 -10 -11 -5 0 -10 -18 -10 -40 0 -33 -3 -40 -20 -40 -11 0 -20
5 -20 10 0 6 5 10 10 10 6 0 10 12 10 26 0 28 -33 64 -58 64 -7 0 -27 14 -42
30 -15 17 -35 30 -44 30 -9 0 -16 3 -16 6 0 13 44 44 62 44 10 0 18 5 18 10 0
6 9 10 20 10 11 0 20 -4 20 -10 0 -5 5 -10 10 -10 6 0 10 9 10 20 0 11 5 20
10 20 6 0 10 -4 10 -10z m-420 -70 c20 -22 37 -30 62 -30 22 0 38 -7 48 -20 8
-11 22 -20 32 -20 10 0 18 -7 18 -15 0 -12 -17 -15 -90 -15 l-90 0 0 -105 0
-105 -130 0 -130 0 0 120 c0 113 1 120 20 120 11 0 20 5 20 10 0 6 9 10 19 10
11 0 22 6 25 13 5 10 7 10 12 0 8 -19 44 -16 44 3 0 20 24 44 44 44 9 0 16 5
16 10 0 22 53 9 80 -20z m256 -225 c-23 -23 -33 -25 -106 -25 -73 0 -83 2
-106 25 l-25 25 131 0 131 0 -25 -25z m-176 -100 c0 -8 -4 -15 -10 -15 -5 0
-10 7 -10 15 0 8 5 15 10 15 6 0 10 -7 10 -15z m93 8 c-7 -2 -19 -2 -25 0 -7
3 -2 5 12 5 14 0 19 -2 13 -5z m427 -116 l0 -123 -220 0 c-175 0 -220 2 -220
13 0 7 -4 13 -10 13 -5 0 -10 5 -10 10 0 6 9 10 20 10 11 0 20 5 20 10 0 6 29
10 66 10 86 0 94 8 94 104 l0 76 130 0 130 0 0 -123z m-360 83 c0 -16 -4 -30
-10 -30 -5 0 -10 14 -10 30 0 17 5 30 10 30 6 0 10 -13 10 -30z m-320 -55 c0
-36 3 -45 18 -45 10 0 24 -9 32 -20 8 -11 22 -20 32 -20 10 0 18 -4 18 -10 0
-5 14 -10 30 -10 17 0 30 -4 30 -10 0 -5 -9 -10 -20 -10 -33 0 -23 -18 13 -23
28 -3 26 -4 -10 -5 -42 -2 -63 -22 -23 -22 11 0 20 -4 20 -10 0 -5 9 -10 20
-10 11 0 20 -4 20 -10 0 -15 -58 -12 -63 3 -2 6 -8 9 -12 5 -5 -5 2 -16 13
-27 23 -19 30 -51 12 -51 -5 0 -10 9 -10 20 0 13 -7 20 -20 20 -11 0 -20 -4
-20 -10 0 -5 5 -10 10 -10 6 0 10 -7 10 -15 0 -17 -2 -18 -24 -9 -9 3 -16 15
-16 25 0 10 -4 19 -10 19 -5 0 -10 -9 -10 -20 0 -13 -7 -20 -20 -20 -13 0 -20
7 -20 20 0 13 -7 20 -20 20 -13 0 -20 -7 -20 -20 0 -11 -4 -20 -10 -20 -5 0
-10 9 -10 20 0 26 -12 26 -30 0 -14 -19 -50 -28 -50 -12 0 4 9 14 20 22 28 20
25 30 -10 30 -16 0 -30 3 -30 6 0 11 29 34 44 34 9 0 16 5 16 10 0 6 -9 10
-20 10 -26 0 -25 18 3 43 15 13 18 21 10 24 -7 3 -13 13 -13 23 0 10 -6 21
-12 23 -7 3 -3 6 10 6 12 1 22 -4 22 -10 0 -11 24 -39 34 -39 3 0 6 9 6 20 0
11 -4 20 -10 20 -5 0 -10 11 -10 25 0 14 5 25 10 25 6 0 10 -9 10 -20 0 -11 5
-20 10 -20 6 0 10 -7 10 -15 0 -8 5 -15 10 -15 6 0 10 25 10 55 0 30 5 55 10
55 6 0 10 -20 10 -45z m200 5 c0 -11 -4 -20 -10 -20 -5 0 -10 9 -10 20 0 11 5
20 10 20 6 0 10 -9 10 -20z m-40 -30 c0 -5 -4 -10 -10 -10 -5 0 -10 5 -10 10
0 6 5 10 10 10 6 0 10 -4 10 -10z m100 -5 c0 -8 -9 -15 -20 -15 -11 0 -20 7
-20 15 0 8 9 15 20 15 11 0 20 -7 20 -15z m60 -155 c0 -5 9 -10 20 -10 11 0
20 5 20 10 0 6 14 10 30 10 17 0 30 -4 30 -10 0 -5 14 -10 30 -10 17 0 30 5
30 10 0 6 14 10 30 10 17 0 30 -4 30 -10 0 -5 9 -10 20 -10 11 0 20 5 20 10 0
6 14 10 30 10 17 0 30 -4 30 -10 0 -5 9 -10 20 -10 17 0 20 -7 20 -45 0 -38
-3 -45 -20 -45 -11 0 -20 -4 -20 -10 0 -6 -62 -10 -166 -10 l-166 0 -28 -30
c-15 -16 -31 -30 -34 -30 -3 0 -6 32 -6 70 0 60 4 75 23 95 22 24 57 33 57 15z"/>
</g>
</svg>
